<svg width="189" height="189" viewBox="0 0 189 189" fill="none" xmlns="http://www.w3.org/2000/svg">
<path fill-rule="evenodd" clip-rule="evenodd" d="M50.0096 36.2436H26.5619C25.4644 36.2436 24.5664 35.3456 24.5664 34.2481V24.6695C24.5664 17.1862 30.7526 11 38.3357 11C45.8189 11 52.0051 17.1862 52.0051 24.6695V34.2481C52.0051 35.3456 51.1071 36.2436 50.0096 36.2436Z" fill="url(#paint0_radial_24186_7991)"/>
<path fill-rule="evenodd" clip-rule="evenodd" d="M50.0096 90.2238H26.5619C25.4644 90.2238 24.5664 89.3258 24.5664 88.2282V70.0688C24.5664 68.9712 25.4644 68.0732 26.5619 68.0732H50.0096C51.1071 68.0732 52.0051 68.9712 52.0051 70.0688V88.2282C52.0051 89.3258 51.1071 90.2238 50.0096 90.2238Z" fill="#8F9AA0"/>
<path fill-rule="evenodd" clip-rule="evenodd" d="M50.0018 122.051H26.5541C25.4566 122.051 24.5586 123.528 24.5586 125.334V175.717C24.5586 177.522 25.4566 179 26.5541 179H50.0018C51.0993 179 51.9973 177.522 51.9973 175.717V125.334C51.9973 123.528 51.0993 122.051 50.0018 122.051Z" fill="url(#paint1_linear_24186_7991)"/>
<path fill-rule="evenodd" clip-rule="evenodd" d="M161.658 36.2436H138.31C137.212 36.2436 136.314 35.3456 136.314 34.2481V24.6695C136.314 17.1862 142.401 11 149.984 11C157.567 11 163.653 17.1862 163.653 24.6695V34.2481C163.653 35.3456 162.755 36.2436 161.658 36.2436Z" fill="url(#paint2_radial_24186_7991)"/>
<path fill-rule="evenodd" clip-rule="evenodd" d="M161.658 90.2238H138.31C137.212 90.2238 136.314 89.3258 136.314 88.2282V70.0688C136.314 68.9712 137.212 68.0732 138.31 68.0732H161.658C162.755 68.0732 163.653 68.9712 163.653 70.0688V88.2282C163.653 89.3258 162.755 90.2238 161.658 90.2238Z" fill="#8F9AA0"/>
<path fill-rule="evenodd" clip-rule="evenodd" d="M161.666 122.051H138.318C137.22 122.051 136.322 123.528 136.322 125.334V175.717C136.322 177.522 137.22 179 138.318 179H161.666C162.763 179 163.661 177.522 163.661 175.717V125.334C163.661 123.528 162.763 122.051 161.666 122.051Z" fill="url(#paint3_linear_24186_7991)"/>
<path fill-rule="evenodd" clip-rule="evenodd" d="M171.736 126.043H16.5831C12.3924 126.043 9 122.65 9 118.459V93.8145C9 89.6239 12.3924 86.2314 16.5831 86.2314H171.736C175.927 86.2314 179.32 89.6239 179.32 93.8145V118.459C179.32 122.65 175.927 126.043 171.736 126.043Z" fill="url(#paint4_linear_24186_7991)"/>
<path fill-rule="evenodd" clip-rule="evenodd" d="M50.3082 126.043H28.457L42.0267 86.2314H63.8779L50.3082 126.043Z" fill="#221C19"/>
<path fill-rule="evenodd" clip-rule="evenodd" d="M98.2026 126.043H76.4512L90.2204 86.2314H112.072L98.2026 126.043Z" fill="#221C19"/>
<path fill-rule="evenodd" clip-rule="evenodd" d="M146.191 126.043H124.34L138.109 86.2314H159.96L146.191 126.043Z" fill="#221C19"/>
<path fill-rule="evenodd" clip-rule="evenodd" d="M171.736 72.063H16.5831C12.3924 72.063 9 68.6706 9 64.48V39.835C9 35.6444 12.3924 32.252 16.5831 32.252H171.736C175.927 32.252 179.32 35.6444 179.32 39.835V64.48C179.32 68.6706 175.927 72.063 171.736 72.063Z" fill="url(#paint5_linear_24186_7991)"/>
<path fill-rule="evenodd" clip-rule="evenodd" d="M50.109 72.063H28.2578L42.2266 32.252H64.0778L50.109 72.063Z" fill="#221C19"/>
<path fill-rule="evenodd" clip-rule="evenodd" d="M97.9996 72.063H76.1484L90.217 32.252H112.068L97.9996 72.063Z" fill="#221C19"/>
<path fill-rule="evenodd" clip-rule="evenodd" d="M146.191 72.063H124.34L138.309 32.252H160.06L146.191 72.063Z" fill="#221C19"/>
<defs>
<radialGradient id="paint0_radial_24186_7991" cx="0" cy="0" r="1" gradientUnits="userSpaceOnUse" gradientTransform="translate(38.2858 23.6218) rotate(90) scale(12.6218 13.7194)">
<stop stop-color="#FFF256"/>
<stop offset="1" stop-color="#FDA70F"/>
</radialGradient>
<linearGradient id="paint1_linear_24186_7991" x1="38.278" y1="179" x2="38.278" y2="122.051" gradientUnits="userSpaceOnUse">
<stop stop-color="#CFDFE8"/>
<stop offset="1" stop-color="#747D82"/>
</linearGradient>
<radialGradient id="paint2_radial_24186_7991" cx="0" cy="0" r="1" gradientUnits="userSpaceOnUse" gradientTransform="translate(149.984 23.6218) rotate(90) scale(12.6218 13.6695)">
<stop stop-color="#FFF256"/>
<stop offset="1" stop-color="#FDA70F"/>
</radialGradient>
<linearGradient id="paint3_linear_24186_7991" x1="149.992" y1="179" x2="149.992" y2="122.051" gradientUnits="userSpaceOnUse">
<stop stop-color="#CFDFE8"/>
<stop offset="1" stop-color="#747D82"/>
</linearGradient>
<linearGradient id="paint4_linear_24186_7991" x1="103.942" y1="126.043" x2="103.942" y2="89.7432" gradientUnits="userSpaceOnUse">
<stop stop-color="#D9BC1C"/>
<stop offset="0.540757" stop-color="#F0E53D"/>
<stop offset="1" stop-color="#EDD123"/>
</linearGradient>
<linearGradient id="paint5_linear_24186_7991" x1="103.942" y1="72.063" x2="103.942" y2="35.7637" gradientUnits="userSpaceOnUse">
<stop stop-color="#D9BC1C"/>
<stop offset="0.540757" stop-color="#F0E53D"/>
<stop offset="1" stop-color="#EDD123"/>
</linearGradient>
</defs>
</svg>
